<svg width="96" height="96" viewBox="0 0 96 96" fill="none" xmlns="http://www.w3.org/2000/svg">
<path d="M59.0965 24.6391C58.2769 23.7981 56.9482 23.7981 56.1286 24.6391L37.2413 44.0214C36.4218 44.8624 36.4218 46.226 37.2413 47.0671C38.0609 47.9081 39.3896 47.9081 40.2092 47.0671L59.0965 27.6847C59.916 26.8437 59.916 25.4801 59.0965 24.6391Z" fill="#3336B2"/>
<path fill-rule="evenodd" clip-rule="evenodd" d="M34.5281 28.3155C34.5281 24.7473 37.3468 21.8547 40.8239 21.8547C44.3009 21.8547 47.1196 24.7473 47.1196 28.3155C47.1196 31.8837 44.3009 34.7763 40.8239 34.7763C37.3468 34.7763 34.5281 31.8837 34.5281 28.3155ZM40.8239 26.1619C39.6648 26.1619 38.7253 27.1261 38.7253 28.3155C38.7253 29.5049 39.6648 30.4691 40.8239 30.4691C41.9829 30.4691 42.9224 29.5049 42.9224 28.3155C42.9224 27.1261 41.9829 26.1619 40.8239 26.1619Z" fill="#3336B2"/>
<path fill-rule="evenodd" clip-rule="evenodd" d="M55.514 36.9299C52.0369 36.9299 49.2182 39.8225 49.2182 43.3906C49.2182 46.9588 52.0369 49.8514 55.514 49.8514C58.991 49.8514 61.8097 46.9588 61.8097 43.3906C61.8097 39.8225 58.991 36.9299 55.514 36.9299ZM53.4154 43.3906C53.4154 42.2013 54.3549 41.2371 55.514 41.2371C56.673 41.2371 57.6125 42.2013 57.6125 43.3906C57.6125 44.58 56.673 45.5442 55.514 45.5442C54.3549 45.5442 53.4154 44.58 53.4154 43.3906Z" fill="#3336B2"/>
<path fill-rule="evenodd" clip-rule="evenodd" d="M45.547 2.94384C47.0798 1.68539 49.258 1.68539 50.7909 2.94384L76.2871 23.8754C79.3851 26.4188 77.6326 31.5459 73.6651 31.5459H69.1548V53.0818C69.1548 55.4606 67.2756 57.389 64.9576 57.389H31.3802C29.0622 57.389 27.183 55.4606 27.183 53.0818V31.5459H22.6727C18.7052 31.5459 16.9527 26.4188 20.0508 23.8754L45.547 2.94384ZM48.1689 6.30718L22.6727 27.2387L31.3802 27.2387V53.0818L64.9576 53.0818V27.2387H73.6651L48.1689 6.30718Z" fill="#3336B2"/>
<path d="M15.6408 69.2337C15.6408 70.4231 14.7012 71.3873 13.5422 71.3873C12.3832 71.3873 11.4436 70.4231 11.4436 69.2337C11.4436 68.0443 12.3832 67.0801 13.5422 67.0801C14.7012 67.0801 15.6408 68.0443 15.6408 69.2337Z" fill="#3336B2"/>
<path fill-rule="evenodd" clip-rule="evenodd" d="M2 66.0033C2 63.6245 3.87914 61.6962 6.19717 61.6962H16.6901C19.0081 61.6962 20.8873 63.6245 20.8873 66.0033V67.0801H34.2342C34.6242 67.0801 35.0122 67.1359 35.3872 67.2459L49.1235 71.2734L65.4717 64.8822C69.336 63.3715 73.6968 64.9739 75.7484 68.6583L76.3787 69.7904L82.6794 67.3035C86.8915 65.641 91.6307 67.6936 93.4084 71.9503L93.7446 72.7552C94.4413 74.4234 93.6624 76.353 92.0203 77.027L51.5921 93.6222C50.8789 93.9149 50.101 94.0012 49.3433 93.8716L20.8873 89.0047V89.6928C20.8873 92.0716 19.0081 94 16.6901 94H6.19717C3.87914 94 2 92.0716 2 89.6928V66.0033ZM16.6901 66.0033H6.19717V89.6928H16.6901V66.0033ZM20.8873 84.6381L50.0333 89.6231L89.4579 73.4399C88.5057 71.4529 86.2227 70.5198 84.1861 71.3236L76.1956 74.4774L51.0044 84.1717L49.5306 80.1388L72.4053 71.336L72.1042 70.7953C71.0784 68.9531 68.898 68.1519 66.9659 68.9072L50.6177 75.2984C49.7706 75.6295 48.8419 75.6703 47.9704 75.4148L34.2342 71.3873H20.8873V84.6381Z" fill="#3336B2"/>
</svg>
