<svg width="96" height="96" viewBox="0 0 96 96" fill="none" xmlns="http://www.w3.org/2000/svg">
<path d="M55.3574 48C55.3574 51.866 52.1416 55 48.1747 55C44.2077 55 40.9919 51.866 40.9919 48C40.9919 44.134 44.2077 41 48.1747 41C52.1416 41 55.3574 44.134 55.3574 48Z" fill="#3336B2"/>
<path fill-rule="evenodd" clip-rule="evenodd" d="M48 25C37.0931 25 20.1565 30.2882 3.40978 47.6149L2 49.0735L3.49936 50.4446C20.2298 65.7445 37.1313 71 48 71C58.8687 71 75.7701 65.7445 92.5007 50.4446L94 49.0735L92.5901 47.6149C75.8435 30.2882 58.9068 25 48 25ZM7.83821 48.8979C15.3111 55.4476 22.7053 59.879 29.4085 62.7173C26.0463 58.5168 24.3996 53.2307 24.3996 48C24.3996 42.9324 25.9452 37.8127 29.0991 33.6787C22.4803 36.7567 15.1982 41.5986 7.83821 48.8979ZM48 29C41.3741 29 36.5555 31.4016 33.3727 34.8912C30.1562 38.4177 28.504 43.1761 28.504 48C28.504 52.8239 30.1562 57.5823 33.3727 61.1088C36.5555 64.5984 41.3741 67 48 67C54.6258 67 59.4444 64.5984 62.6273 61.1088C65.8437 57.5823 67.496 52.8239 67.496 48C67.496 43.1761 65.8437 38.4177 62.6273 34.8912C59.4444 31.4016 54.6258 29 48 29ZM66.5914 62.7173C69.9537 58.5168 71.6004 53.2307 71.6004 48C71.6004 42.9324 70.0547 37.8127 66.9009 33.6787C73.5197 36.7567 80.8017 41.5986 88.1618 48.8979C80.6889 55.4476 73.2947 59.879 66.5914 62.7173Z" fill="#3336B2"/>
</svg>
