<svg width="96" height="96" viewBox="0 0 96 96" fill="none" xmlns="http://www.w3.org/2000/svg">
<path fill-rule="evenodd" clip-rule="evenodd" d="M50.7909 3.01513C49.258 1.66163 47.0798 1.66162 45.547 3.01512L25.2972 20.8951C22.1991 23.6307 23.9517 29.145 27.9192 29.145H30.3309V47.675C30.3309 50.2335 32.2101 52.3075 34.5281 52.3075H61.8097C64.1278 52.3075 66.0069 50.2335 66.0069 47.675V29.145H68.4186C72.3861 29.145 74.1387 23.6307 71.0406 20.8951L50.7909 3.01513ZM27.9192 24.5125L48.1689 6.6325L68.4186 24.5125H61.8097V47.675H56.5633V33.7775C56.5633 31.219 54.6841 29.145 52.3661 29.145H43.9717C41.6537 29.145 39.7746 31.219 39.7746 33.7775V47.675H34.5281V24.5125H27.9192ZM52.3661 33.7775V47.675H43.9717V33.7775H52.3661Z" fill="#3336B2"/>
<path d="M13.5422 69.6794C14.7012 69.6794 15.6408 68.6423 15.6408 67.3631C15.6408 66.0839 14.7012 65.0469 13.5422 65.0469C12.3832 65.0469 11.4436 66.0839 11.4436 67.3631C11.4436 68.6423 12.3832 69.6794 13.5422 69.6794Z" fill="#3336B2"/>
<path fill-rule="evenodd" clip-rule="evenodd" d="M6.19717 59.2562C3.87914 59.2562 2 61.3303 2 63.8887V89.3675C2 91.926 3.87914 94 6.19717 94H16.6901C19.0081 94 20.8873 91.926 20.8873 89.3675V88.6274L49.3433 93.8619C50.101 94.0013 50.8789 93.9085 51.5921 93.5936L92.0203 75.7451C93.6624 75.0201 94.4413 72.9448 93.7446 71.1506L93.4084 70.2849C91.6307 65.7067 86.8915 63.499 82.6794 65.2871L76.3787 67.9618L75.7484 66.7443C73.6968 62.7815 69.336 61.0582 65.4717 62.683L49.1235 69.5568L35.3872 65.2251C35.0122 65.1069 34.6242 65.0469 34.2342 65.0469H20.8873V63.8887C20.8873 61.3303 19.0081 59.2562 16.6901 59.2562H6.19717ZM16.6901 89.3675H6.19717V63.8887H16.6901V89.3675ZM50.0333 89.2925L20.8873 83.931V69.6794H34.2342L47.9704 74.0111C48.8419 74.2859 49.7706 74.242 50.6177 73.8858L66.9659 67.012C68.898 66.1996 71.0784 67.0613 72.1042 69.0426L72.4053 69.6242L49.5306 79.0919L51.0044 83.4294L76.1956 73.0029L84.1861 69.6108C86.2227 68.7463 88.5057 69.7499 89.4579 71.887L50.0333 89.2925Z" fill="#3336B2"/>
</svg>
