<svg width="96" height="96" viewBox="0 0 96 96" fill="none" xmlns="http://www.w3.org/2000/svg">
<path d="M57.1906 46.3797C58.0437 45.5882 58.0437 44.3048 57.1906 43.5133C56.3375 42.7218 54.9543 42.7218 54.1012 43.5133L46.9077 50.1875L44.0834 47.567C43.2302 46.7755 41.8471 46.7755 40.994 47.567C40.1408 48.3585 40.1408 49.6419 40.994 50.4334L45.2858 54.4154C46.1816 55.2466 47.6339 55.2465 48.5297 54.4154L57.1906 46.3797Z" fill="#3336B2"/>
<path fill-rule="evenodd" clip-rule="evenodd" d="M27.2469 47.9868C27.2469 37.3525 36.5384 28.7317 48 28.7317C59.4616 28.7317 68.7531 37.3525 68.7531 47.9868C68.7531 58.6211 59.4616 67.2418 48 67.2418C36.5384 67.2418 27.2469 58.6211 27.2469 47.9868ZM48 32.7854C38.9514 32.7854 31.616 39.5913 31.616 47.9868C31.616 56.3823 38.9514 63.1881 48 63.1881C57.0486 63.1881 64.384 56.3823 64.384 47.9868C64.384 39.5913 57.0486 32.7854 48 32.7854Z" fill="#3336B2"/>
<path fill-rule="evenodd" clip-rule="evenodd" d="M48 2L49.5442 2.92107C57.0506 7.39863 62.2282 10.4871 68.145 12.5159C74.0967 14.5567 80.9146 15.5572 91.6907 15.5572H94L93.8719 17.6965C92.7734 36.0416 90.0182 49.8196 83.2417 61.6084C76.4523 73.4196 65.7521 83.0195 49.2118 93.2505L48 94L46.7882 93.2505C30.2479 83.0195 19.5477 73.4196 12.7583 61.6084C5.98176 49.8196 3.22656 36.0416 2.12809 17.6965L2 15.5572H4.30927C13.4083 15.5572 20.2569 14.5657 26.6674 12.5022C33.1073 10.4292 39.2128 7.24116 46.8187 2.70459L48 2ZM6.62629 19.5894C7.79508 36.6357 10.5318 49.1209 16.6133 59.7008C22.7724 70.4154 32.4812 79.3791 48 89.1225C63.5188 79.3791 73.2276 70.4154 79.3866 59.7008C85.4676 49.1221 88.2043 36.6385 89.3733 19.5951C79.5705 19.4579 72.7677 18.4226 66.6305 16.3183C60.4245 14.1903 55.0044 10.9971 47.9967 6.81725C40.8254 11.0477 34.6804 14.2136 28.0995 16.332C21.7086 18.3892 14.9975 19.4305 6.62629 19.5894Z" fill="#3336B2"/>
</svg>
