<svg width="96" height="96" viewBox="0 0 96 96" fill="none" xmlns="http://www.w3.org/2000/svg">
<path d="M73.0868 28C76.5509 28 79.3591 25.3137 79.3591 22C79.3591 18.6863 76.5509 16 73.0868 16C69.6227 16 66.8144 18.6863 66.8144 22C66.8144 25.3137 69.6227 28 73.0868 28Z" fill="#3336B2"/>
<path fill-rule="evenodd" clip-rule="evenodd" d="M67.862 1.99999C55.3593 1.98754 44.8933 8.67155 41.7878 20.5133C41.1542 22.9292 41.2237 25.7952 41.4824 28.2515C41.7454 30.7483 42.2269 33.0167 42.5374 34.3211C42.5434 34.3464 42.5417 34.3689 42.537 34.3848C42.5349 34.3923 42.5324 34.3971 42.5309 34.3996L42.5295 34.4018L42.5284 34.403L3.53094 71.7071C2.5507 72.6448 2 73.9165 2 75.2426V89C2 91.7614 4.34019 94 7.22697 94H20.8171C23.1265 94 24.9987 92.2091 24.9987 90V82H33.3618C35.6712 82 37.5434 80.2091 37.5434 78V69.9999L43.8158 69.9999C46.1252 69.9999 47.9973 68.2091 47.9973 66V58H57.5852C58.6943 58 59.7579 57.5785 60.5421 56.8284L64.4306 53.1086C64.4306 53.1086 64.4521 53.0894 64.5035 53.0939C65.8355 53.2108 68.2825 53.372 70.9611 53.2789C73.5925 53.1874 76.6659 52.8457 79.1334 51.8399C89.6957 47.5344 94.1821 38.5502 93.9944 27.9661C93.7427 13.7786 83.0148 2.01507 67.862 1.99999ZM45.8437 21.4866C48.4204 11.6613 57.0077 5.98918 67.8576 5.99998C80.4178 6.01249 89.5949 15.7156 89.8134 28.0339C89.9796 37.4057 86.1266 44.6412 77.4941 48.16C75.7447 48.8732 73.2916 49.1952 70.8092 49.2815C68.3741 49.3662 66.12 49.219 64.8857 49.1106C63.6475 49.0019 62.3885 49.4053 61.4738 50.2802L57.5852 54H47.9973C45.6879 54 43.8158 55.7908 43.8158 58V66H37.5434C35.234 66 33.3618 67.7908 33.3618 69.9999V78H24.9987C22.6892 78 20.8171 79.7908 20.8171 82V90H7.22697C6.64961 90 6.18158 89.5523 6.18158 89V75.2426C6.18158 74.9774 6.29171 74.7231 6.48776 74.5355L45.4853 37.2314C46.5452 36.2174 46.9327 34.7695 46.6146 33.4331C46.3255 32.2185 45.8825 30.1244 45.643 27.8505C45.3992 25.536 45.3884 23.2229 45.8437 21.4866Z" fill="#3336B2"/>
</svg>
