<svg width="96" height="96" viewBox="0 0 96 96" fill="none" xmlns="http://www.w3.org/2000/svg">
<path fill-rule="evenodd" clip-rule="evenodd" d="M21.8636 15C21.8636 12.7909 23.7359 11 26.0455 11H42.7727C45.0823 11 46.9545 12.7909 46.9545 15V31C46.9545 33.2091 45.0823 35 42.7727 35H26.0455C23.7359 35 21.8636 33.2091 21.8636 31V15ZM42.7727 15H26.0455V31H42.7727V15Z" fill="#3336B2"/>
<path d="M57.4091 47C56.2543 47 55.3182 47.8954 55.3182 49C55.3182 50.1046 56.2543 51 57.4091 51H83.5454C84.7002 51 85.6364 50.1046 85.6364 49C85.6364 47.8954 84.7002 47 83.5454 47H57.4091Z" fill="#3336B2"/>
<path d="M55.3182 40C55.3182 38.8954 56.2543 38 57.4091 38H83.5454C84.7002 38 85.6364 38.8954 85.6364 40C85.6364 41.1046 84.7002 42 83.5454 42H57.4091C56.2543 42 55.3182 41.1046 55.3182 40Z" fill="#3336B2"/>
<path d="M57.4091 11C56.2543 11 55.3182 11.8954 55.3182 13C55.3182 14.1046 56.2543 15 57.4091 15H83.5454C84.7002 15 85.6364 14.1046 85.6364 13C85.6364 11.8954 84.7002 11 83.5454 11H57.4091Z" fill="#3336B2"/>
<path d="M55.3182 22C55.3182 20.8954 56.2543 20 57.4091 20H83.5454C84.7002 20 85.6364 20.8954 85.6364 22C85.6364 23.1046 84.7002 24 83.5454 24H57.4091C56.2543 24 55.3182 23.1046 55.3182 22Z" fill="#3336B2"/>
<path d="M57.4091 29C56.2543 29 55.3182 29.8954 55.3182 31C55.3182 32.1046 56.2543 33 57.4091 33H83.5454C84.7002 33 85.6364 32.1046 85.6364 31C85.6364 29.8954 84.7002 29 83.5454 29H57.4091Z" fill="#3336B2"/>
<path fill-rule="evenodd" clip-rule="evenodd" d="M13.5 6C13.5 3.79086 15.3723 2 17.6818 2H89.8182C92.1277 2 94 3.79086 94 6V81.7943C94 83.5465 91.8886 84.5281 90.4481 83.4455L76.5496 73H53.2273V83.1328C53.2273 84.2231 52.4234 84.905 51.7222 85.131C51.0157 85.3587 49.9106 85.2793 49.2258 84.3636C48.4479 83.3236 43.1612 77 28.1364 77H25.4013L27.6714 89.3049C28.1233 91.7542 26.1535 94 23.5533 94H20.4815C18.4523 94 16.716 92.6066 16.3633 90.6951L13.8367 77H12.4545C10.145 77 8.27273 75.2091 8.27273 73V71H6.18182C3.87226 71 2 69.2091 2 67V61C2 58.7909 3.87226 57 6.18182 57H8.27273V55C8.27273 52.7919 10.1431 51 12.4537 51H13.5V6ZM17.6818 51H28.1364C43.1612 51 48.4479 44.6764 49.2258 43.6364C49.9106 42.7207 51.0157 42.6413 51.7222 42.869C52.4233 43.095 53.2273 43.7769 53.2273 44.8672V69H76.5496C77.4865 69 78.3964 69.301 79.1332 69.8547L89.8182 77.8851V6H17.6818V51ZM8.27273 61H6.18182V67H8.27273V61ZM18.0831 77L20.4815 90H23.5533L21.1549 77H18.0831ZM49.0455 49.3649C45.6499 51.8258 39.7521 54.6028 30.2273 54.9612V73.0388C39.7521 73.3972 45.6499 76.1742 49.0455 78.6351V49.3649ZM26.0455 73V55H12.4545V73H26.0455Z" fill="#3336B2"/>
</svg>
