<svg width="96" height="96" viewBox="0 0 96 96" fill="none" xmlns="http://www.w3.org/2000/svg">
<path d="M61.7307 45.7176C61.7307 46.8726 60.7613 47.809 59.5654 47.809C58.3696 47.809 57.4001 46.8726 57.4001 45.7176C57.4001 44.5625 58.3696 43.6261 59.5654 43.6261C60.7613 43.6261 61.7307 44.5625 61.7307 45.7176Z" fill="#3336B2"/>
<path d="M57.4001 30.0318C57.4001 28.9662 57.7426 28.5571 57.9743 28.3706C58.2756 28.1282 58.8045 27.9404 59.5654 27.9404C60.3264 27.9404 60.8553 28.1282 61.1565 28.3706C61.3882 28.5571 61.7307 28.9662 61.7307 30.0318C61.7307 30.7125 61.2433 31.4925 60.104 32.745C60.006 32.8527 59.9 32.9676 59.7892 33.0876C59.3678 33.544 58.8773 34.0752 58.4968 34.5756C58.0333 35.1853 57.4001 36.1558 57.4001 37.3518V41.5343L61.7307 41.5347V37.4456C61.7536 37.398 61.8193 37.2725 61.9873 37.0514C62.2346 36.7261 62.5349 36.4003 62.9256 35.9764C63.0586 35.8322 63.202 35.6766 63.3573 35.5058C64.3833 34.3778 66.0612 32.4882 66.0612 30.0318C66.0612 27.9603 65.321 26.2779 63.9288 25.1572C62.6061 24.0925 60.9697 23.7575 59.5654 23.7575C58.1611 23.7575 56.5247 24.0925 55.202 25.1572C53.8098 26.2779 53.0696 27.9603 53.0696 30.0318H57.4001Z" fill="#3336B2"/>
<path fill-rule="evenodd" clip-rule="evenodd" d="M56.8963 13.7079C58.4642 12.5227 60.6668 12.5228 62.2346 13.7082L80.8565 27.7883C84.0981 30.2393 82.3037 35.2649 78.1872 35.2649H76.8876V49.905C76.8876 52.2151 74.9487 54.0879 72.557 54.0879H46.5738C44.1821 54.0879 42.2433 52.2151 42.2433 49.905V35.2639L40.9388 35.2633C36.8231 35.2614 35.0308 30.2365 38.272 27.7864L56.8963 13.7079ZM59.5653 17.0019L40.9409 31.0805L46.5738 31.0831V49.905H72.557V31.0821H78.1872L59.5653 17.0019Z" fill="#3336B2"/>
<path fill-rule="evenodd" clip-rule="evenodd" d="M34.1486 12.9357C47.0343 -0.69242 68.55 -1.75287 82.6783 10.7103C96.7922 23.1607 97.8812 44.9888 84.9822 58.6309C72.5654 71.7631 52.1351 73.2256 38.0232 62.1629L28.9324 70.9437C29.8026 72.5249 29.5481 74.5319 28.169 75.864L10.6611 92.7749C8.9699 94.4084 6.22796 94.4084 4.53677 92.7749L3.26839 91.5497C1.5772 89.9162 1.57721 87.2678 3.26839 85.6343L20.7763 68.7234C22.1554 67.3913 24.2333 67.1455 25.8703 67.986L34.8325 59.3294C22.2742 46.6847 21.762 26.0359 34.1486 12.9357ZM79.7579 13.7989C67.4147 2.91048 48.6366 3.81564 37.3463 15.7565C26.0692 27.6833 27.0152 46.8664 39.3729 57.7676C51.7161 68.6561 70.4942 67.7509 81.7846 55.8101C93.0617 43.8833 92.1156 24.7002 79.7579 13.7989Z" fill="#3336B2"/>
</svg>
