<svg width="96" height="96" viewBox="0 0 96 96" fill="none" xmlns="http://www.w3.org/2000/svg">
<path fill-rule="evenodd" clip-rule="evenodd" d="M44.9189 70.0002V72.0002H52.1081V76.0001H44.9189V81.0001H40.8108V76.0001H38.7568V72.0002H40.8108V70.0002H38.7568V66.0002H40.8108V53.0003L52.1081 53.0003C54.7345 53.0003 56.8058 54.1071 58.1734 55.791C59.4987 57.4228 60.1011 59.5078 60.1011 61.5003C60.1011 63.4927 59.4987 65.5777 58.1734 67.2095C56.8058 68.8934 54.7345 70.0002 52.1081 70.0002H44.9189ZM44.9189 66.0002V57.0003L52.1081 57.0003C53.4409 57.0003 54.3391 57.5185 54.9511 58.2721C55.6054 59.0778 55.9929 60.2427 55.9929 61.5003C55.9929 62.7578 55.6054 63.9228 54.9511 64.7284C54.3391 65.482 53.4409 66.0002 52.1081 66.0002H44.9189Z" fill="#3336B2"/>
<path fill-rule="evenodd" clip-rule="evenodd" d="M74.406 16.5811C77.6717 23.9806 77.7904 32.9461 77.7858 40.0004H81.8919C84.1607 40.0004 86 41.7913 86 44.0004V90C86 92.2092 84.1607 94 81.8919 94H14.1081C11.8393 94 10 92.2092 10 90V44.0004C10 41.7913 11.8393 40.0004 14.1081 40.0004H18.2141C18.2121 33.4744 18.357 24.6608 21.589 17.2122C23.404 13.0295 26.2161 9.20405 30.5539 6.43017C34.8869 3.6594 40.5819 2.0401 47.9888 2.00076C55.3782 1.96151 61.0694 3.44677 65.4078 6.08892C69.758 8.73833 72.5832 12.4508 74.406 16.5811ZM48.0112 6.00067C54.8271 5.96446 59.7048 7.33369 63.2292 9.48015C66.7418 11.6194 69.0734 14.6296 70.6317 18.1603C73.535 24.7389 73.6742 32.8756 73.6765 40.0004H68.5443C68.5525 36.9789 68.5587 33.9382 68.3766 31.0757C68.1539 27.5764 67.6435 24.1728 66.4285 21.19C65.1963 18.1648 63.2302 15.5539 60.1376 13.731C57.0772 11.9271 53.0932 11.0007 48 11.0007C42.8751 11.0007 38.8749 12.0239 35.8111 13.9522C32.7292 15.8919 30.783 18.6288 29.5637 21.7161C27.4323 27.1128 27.433 33.9066 27.4545 40.0004H22.3236C22.328 33.4396 22.4874 25.4197 25.3733 18.7689C26.9394 15.1595 29.2841 12.0277 32.8091 9.77356C36.339 7.51631 41.2128 6.03678 48.0112 6.00067ZM64.2763 31.323C64.4506 34.0619 64.4439 36.9655 64.436 40.0004H31.5643C31.5507 33.7677 31.5683 27.7846 33.3981 23.1518C34.3751 20.678 35.8378 18.6983 38.0412 17.3115C40.2625 15.9135 43.4237 15.0006 48 15.0006C52.608 15.0006 55.7854 15.8414 58.0102 17.1528C60.2028 18.4452 61.6456 20.2976 62.6098 22.6646C63.5911 25.074 64.0643 27.9915 64.2763 31.323ZM14.1081 44.0004H81.8919V90H14.1081V44.0004Z" fill="#3336B2"/>
</svg>
