<svg width="96" height="96" viewBox="0 0 96 96" fill="none" xmlns="http://www.w3.org/2000/svg">
<path d="M12.4545 20C11.2997 20 10.3636 20.8954 10.3636 22C10.3636 23.1046 11.2997 24 12.4545 24H49.0455C50.2003 24 51.1364 23.1046 51.1364 22C51.1364 20.8954 50.2003 20 49.0455 20H12.4545Z" fill="#3336B2"/>
<path d="M10.3636 31C10.3636 29.8954 11.2997 29 12.4545 29H49.0455C50.2003 29 51.1364 29.8954 51.1364 31C51.1364 32.1046 50.2003 33 49.0455 33H12.4545C11.2997 33 10.3636 32.1046 10.3636 31Z" fill="#3336B2"/>
<path d="M10.3636 40C10.3636 38.8954 11.2997 38 12.4545 38H49.0455C50.2003 38 51.1364 38.8954 51.1364 40C51.1364 41.1046 50.2003 42 49.0455 42H12.4545C11.2997 42 10.3636 41.1046 10.3636 40Z" fill="#3336B2"/>
<path d="M10.3636 49C10.3636 47.8954 11.3582 47 12.5852 47H43.6875C44.9145 47 45.9091 47.8954 45.9091 49C45.9091 50.1046 44.9145 51 43.6875 51H12.5852C11.3582 51 10.3636 50.1046 10.3636 49Z" fill="#3336B2"/>
<path d="M10.3636 58C10.3636 56.8954 11.2997 56 12.4545 56H36.5C37.6548 56 38.5909 56.8954 38.5909 58C38.5909 59.1046 37.6548 60 36.5 60H12.4545C11.2997 60 10.3636 59.1046 10.3636 58Z" fill="#3336B2"/>
<path d="M10.3636 68C10.3636 66.8954 11.2997 66 12.4545 66H36.5C37.6548 66 38.5909 66.8954 38.5909 68C38.5909 69.1046 37.6548 70 36.5 70H12.4545C11.2997 70 10.3636 69.1046 10.3636 68Z" fill="#3336B2"/>
<path d="M78.7512 61.5858C79.5678 62.3668 79.5678 63.6332 78.7512 64.4142L67.3251 75.3435C66.4678 76.1636 65.0777 76.1636 64.2203 75.3435L59.067 70.4142C58.2504 69.6332 58.2504 68.3668 59.067 67.5858C59.8835 66.8047 61.2074 66.8047 62.0239 67.5858L65.7727 71.1716L75.7942 61.5858C76.6108 60.8047 77.9347 60.8047 78.7512 61.5858Z" fill="#3336B2"/>
<path fill-rule="evenodd" clip-rule="evenodd" d="M13.5 2C11.1905 2 9.31818 3.79086 9.31818 6V11H6.18182C3.87226 11 2 12.7909 2 15V82C2 84.2091 3.87226 86 6.18182 86H48.6999C53.4732 90.9207 60.2925 94 67.8636 94C82.2983 94 94 82.8071 94 69C94 55.1929 82.2983 44 67.8636 44V6C67.8636 3.79086 65.9913 2 63.6818 2H13.5ZM41.7273 69C41.7273 73.7615 43.119 78.2121 45.5344 82H6.18182V15H55.3182V47.0629C47.2186 51.3099 41.7273 59.5416 41.7273 69ZM63.6818 44.3183C62.2454 44.5392 60.8481 44.8722 59.5 45.3074V15C59.5 12.7909 57.6277 11 55.3182 11H13.5V6H63.6818V44.3183ZM67.8636 48C55.7385 48 45.9091 57.402 45.9091 69C45.9091 80.598 55.7385 90 67.8636 90C79.9888 90 89.8182 80.598 89.8182 69C89.8182 57.402 79.9888 48 67.8636 48Z" fill="#3336B2"/>
</svg>
