<svg width="96" height="96" viewBox="0 0 96 96" fill="none" xmlns="http://www.w3.org/2000/svg">
<path d="M20.4731 27.6777C20.129 28.7298 18.9986 29.3032 17.9484 28.9584C16.8982 28.6136 16.3258 27.4812 16.67 26.429C17.0142 25.3769 18.1445 24.8035 19.1948 25.1483C20.245 25.4931 20.8173 26.6256 20.4731 27.6777Z" fill="#3336B2"/>
<path d="M75.5269 27.6777C75.871 28.7298 77.0014 29.3032 78.0516 28.9584C79.1018 28.6136 79.6742 27.4812 79.33 26.429C78.9858 25.3769 77.8555 24.8035 76.8052 25.1483C75.755 25.4931 75.1827 26.6256 75.5269 27.6777Z" fill="#3336B2"/>
<path fill-rule="evenodd" clip-rule="evenodd" d="M14.1048 18.2005C12.0044 17.5109 9.74361 18.6577 9.05525 20.7619L2.20011 41.7176C1.51175 43.8219 2.65646 46.0868 4.75689 46.7764L15.3235 50.2457L17.3542 54.8054C17.2579 54.9015 17.1633 55.0001 17.0706 55.1012C15.8234 56.4612 15.0475 58.1244 14.8739 59.7784C14.7004 61.4322 15.1324 63.2195 16.5034 64.4814C17.7459 65.625 19.3524 65.9622 20.8561 65.7824C20.9207 67.1221 21.413 68.4631 22.5026 69.472C23.8698 70.738 25.6831 71.0236 27.3142 70.7154C27.5454 70.6717 27.7757 70.616 28.0044 70.5486C28.206 71.749 28.7689 72.9038 29.805 73.7595C31.2415 74.9459 33.0681 75.1282 34.6792 74.7281C35.1272 74.6168 35.5696 74.4592 36 74.259C36.293 75.2818 36.8692 76.2357 37.7968 76.9503C39.2726 78.0873 41.1043 78.2075 42.7009 77.7528C44.2977 77.2982 45.8004 76.2473 46.9241 74.7833C47.4525 74.095 47.8712 73.349 48.1696 72.579L52.9932 75.3404C56.5113 77.4417 60.1452 75.9994 61.85 73.4824C62.4659 72.5732 62.8669 71.4761 62.9061 70.3149C63.273 70.285 63.6344 70.22 63.9878 70.1204C65.5425 69.6824 66.7625 68.6251 67.4972 67.3371C68.0129 66.4329 68.3093 65.3814 68.309 64.2928C70.8681 64.4896 73.0991 63.3421 74.2509 61.3228C74.7691 60.4142 75.0298 59.3696 74.976 58.2997C77.2535 58.2679 79.2032 57.1511 80.2542 55.3085C81.0351 53.9393 81.2312 52.2612 80.6475 50.6529C80.579 50.4643 80.5008 50.2792 80.4131 50.0979C80.8503 50.1061 81.2962 50.0422 81.7352 49.8981L91.2431 46.7764C93.3435 46.0868 94.4883 43.8219 93.7999 41.7176L86.9448 20.7619C86.2564 18.6577 83.9956 17.5109 81.8952 18.2005L72.3873 21.3222C70.2869 22.0118 69.1422 24.2767 69.8305 26.3809L70.1967 27.5002H64.5641C64.5624 27.5 64.5528 27.4984 64.5371 27.4893C62.0241 26.0259 59.5905 24.9783 56.9298 24.6037C54.3413 24.2394 51.6833 24.5318 48.6818 25.4955H46.264C43.6301 24.7921 41.1544 24.3837 38.7213 24.5985C36.1589 24.8247 33.7755 25.7293 31.3716 27.4654C31.3467 27.4834 31.3258 27.4928 31.3129 27.4972C31.3073 27.4991 31.3037 27.4999 31.302 27.5002H25.8033L26.1695 26.3809C26.8579 24.2767 25.7131 22.0118 23.6127 21.3222L14.1048 18.2005ZM48.4845 68.1413L55.0146 71.8796L55.0328 71.8906C56.5115 72.7794 57.87 72.2177 58.5383 71.231C58.8733 70.7365 58.964 70.2266 58.8729 69.8111C58.8147 69.5458 58.654 69.1879 58.2273 68.8164L57.4457 68.2944L51.4942 64.8164L53.5108 61.353L59.4909 64.8478C59.8958 65.0709 60.2677 65.3177 60.6049 65.5856L61.0733 65.8984C61.8866 66.3764 62.4976 66.3752 62.9042 66.2607C63.3505 66.1349 63.7564 65.8139 64.0223 65.3478C64.2881 64.8818 64.3737 64.3389 64.2527 63.8389C64.1402 63.374 63.8153 62.8054 62.9957 62.3078L56.0121 58.3098L57.9978 54.8286L64.9534 58.8105L66.9048 59.788C69.1217 60.8985 70.3893 60.0114 70.776 59.3335C70.9956 58.9485 71.0496 58.4966 70.883 58.0374C70.7168 57.5796 70.2576 56.9289 69.1171 56.3576L60.1122 51.8469L61.902 48.2606L72.9081 53.7737C75.1249 54.8842 76.3926 53.9971 76.7793 53.3192C76.9989 52.9343 77.0529 52.4823 76.8862 52.0232C76.7201 51.5653 76.2609 50.9146 75.1204 50.3433L59.1117 42.3243C57.9095 41.7221 57.0547 41.5742 56.0025 41.706C54.7967 41.857 53.2781 42.3795 50.7443 43.3949L50.6681 43.4255L50.5896 43.4496C44.1341 45.4396 39.9842 46.6953 34.2497 44.3973L34.1724 44.3663L34.098 44.329C33.6002 44.0797 33.0562 43.795 32.6089 43.4678C32.1818 43.1553 31.5405 42.5911 31.3043 41.6742C31.0505 40.6891 31.3938 39.8411 31.7465 39.2736C32.0906 38.7202 32.5886 38.1931 33.124 37.6903C34.2055 36.6745 35.9179 35.3249 38.2618 33.4865L38.7334 33.1167C40.1879 31.9763 41.9001 30.6337 43.8974 29.04C42.0627 28.6281 40.5051 28.466 39.0727 28.5925C37.2965 28.7494 35.5902 29.3615 33.712 30.7179C33.0434 31.2008 32.2087 31.5097 31.3046 31.5097H24.4917L18.9316 48.5068L20.7976 52.6967C21.0423 52.6219 21.2891 52.5604 21.5368 52.5129C23.1669 52.1998 24.9812 52.48 26.3521 53.7418C27.4514 54.7536 27.947 56.1032 28.0108 57.4508C29.5218 57.2691 31.1377 57.6087 32.3833 58.7621C33.2434 59.5585 33.7313 60.5617 33.9305 61.608C34.017 61.5829 34.1037 61.5595 34.1907 61.5379C35.8018 61.1378 37.6284 61.3201 39.0649 62.5065C39.8887 63.1868 40.4134 64.0563 40.6951 64.9874C41.0452 64.8245 41.4035 64.6903 41.7666 64.5868C43.3632 64.1322 45.1949 64.2524 46.6707 65.3894C47.6166 66.1181 48.1971 67.0956 48.4845 68.1413ZM25.724 63.1877C25.7444 63.1659 25.7647 63.144 25.7849 63.1219C25.9156 62.9795 26.0411 62.8337 26.1612 62.6849C26.8589 61.9788 27.6474 61.5846 28.3134 61.4588C29.0196 61.3253 29.4459 61.5019 29.6668 61.7065C29.8878 61.9111 30.097 62.323 30.0198 63.0388C29.9425 63.7543 29.5761 64.6309 28.849 65.419C28.1219 66.2071 27.2785 66.642 26.5725 66.7753C25.8664 66.9088 25.44 66.7322 25.2191 66.5276C24.9981 66.323 24.7889 65.9111 24.8661 65.1953C24.9314 64.5909 25.203 63.8716 25.724 63.1877ZM23.1401 60.0481C23.6652 59.359 23.9375 58.6338 24.0013 58.0256C24.0765 57.3096 23.866 56.8983 23.6444 56.6944C23.4229 56.4905 22.996 56.3152 22.2902 56.4507C21.5847 56.5862 20.7426 57.0236 20.0178 57.8139C19.2931 58.6042 18.9293 59.4818 18.8542 60.1976C18.7791 60.9136 18.9895 61.3248 19.2111 61.5288C19.4327 61.7327 19.8595 61.908 20.5653 61.7725C21.2274 61.6453 22.0099 61.2522 22.7028 60.551C22.8287 60.3952 22.9604 60.2426 23.0978 60.0936L23.1401 60.0481ZM71.5083 31.5097H64.563C63.8326 31.5097 63.132 31.3087 62.5258 30.9557C60.2552 29.6334 58.3289 28.8496 56.3729 28.5742C54.5172 28.313 52.4944 28.4903 49.9733 29.2913C46.3517 32.2348 43.4564 34.505 41.2019 36.2727L40.7289 36.6436C38.3202 38.5328 36.7808 39.7518 35.8612 40.6154C35.8341 40.6409 35.8079 40.6657 35.7827 40.6898L35.8128 40.7051C40.0245 42.3703 42.8773 41.6309 49.3344 39.6415C51.7679 38.6677 53.7287 37.95 55.506 37.7274C57.4554 37.4833 59.102 37.8366 60.9015 38.738L76.4149 46.5089L71.5083 31.5097ZM22.3663 25.1323L15.5112 46.088L6.00328 42.9663L12.8584 22.0106L22.3663 25.1323ZM73.6337 25.1323L83.1416 22.0106L89.9967 42.9663L80.4888 46.088L73.6337 25.1323ZM34.9313 40.2006C34.9218 40.1911 34.9161 40.1865 34.9156 40.1865C34.9155 40.1865 34.9159 40.187 34.9169 40.188L34.9208 40.1917L34.9263 40.1964L34.9313 40.2006ZM35.1538 65.4296C34.4566 65.6028 33.639 66.0848 32.9576 66.9129C32.2762 67.741 31.9599 68.6369 31.9232 69.3556C31.8865 70.0746 32.1186 70.474 32.3508 70.6658C32.583 70.8575 33.0186 71.0096 33.7161 70.8364C34.4134 70.6632 35.2309 70.1812 35.9123 69.3531C36.5937 68.5251 36.91 67.6291 36.9467 66.9104C36.9834 66.1914 36.7513 65.792 36.5191 65.6003C36.2869 65.4085 35.8513 65.2564 35.1538 65.4296ZM40.716 70.0006C41.369 69.1498 42.1698 68.6404 42.8608 68.4436C43.552 68.2468 43.9925 68.3841 44.231 68.5678C44.4696 68.7516 44.7151 69.1428 44.7027 69.8627C44.6904 70.5822 44.4045 71.4884 43.7515 72.3391C43.0985 73.1899 42.2977 73.6993 41.6067 73.8961C40.9155 74.0929 40.475 73.9556 40.2365 73.7719C39.9979 73.5881 39.7524 73.1969 39.7648 72.477C39.7771 71.7575 40.063 70.8513 40.716 70.0006Z" fill="#3336B2"/>
</svg>
