<svg width="96" height="96" viewBox="0 0 96 96" fill="none" xmlns="http://www.w3.org/2000/svg">
<path d="M63.6818 18.4472C62.6817 17.8698 62.3391 16.591 62.9165 15.591C63.4939 14.5909 64.7727 14.2483 65.7727 14.8256C66.7728 15.403 67.1154 16.6818 66.538 17.6819C65.9607 18.6819 64.6819 19.0246 63.6818 18.4472Z" fill="#3336B2"/>
<path d="M63.6818 77.5528C62.6817 78.1302 62.3391 79.409 62.9165 80.409C63.4939 81.4091 64.7727 81.7517 65.7727 81.1743C66.7728 80.597 67.1154 79.3182 66.538 78.3181C65.9607 77.318 64.6819 76.9754 63.6818 77.5528Z" fill="#3336B2"/>
<path d="M80.4091 62.9165C79.409 62.3392 78.1302 62.6818 77.5528 63.6819C76.9755 64.6819 77.3181 65.9607 78.3182 66.5381C79.3182 67.1155 80.597 66.7729 81.1744 65.7728C81.7518 64.7727 81.4091 63.4939 80.4091 62.9165Z" fill="#3336B2"/>
<path d="M77.5528 32.3182C78.1302 33.3183 79.409 33.661 80.4091 33.0836C81.4091 32.5062 81.7518 31.2274 81.1744 30.2273C80.597 29.2273 79.3182 28.8846 78.3182 29.462C77.3181 30.0394 76.9755 31.3182 77.5528 32.3182Z" fill="#3336B2"/>
<path d="M29.4619 78.3182C28.8846 79.3183 29.2272 80.5971 30.2273 81.1745C31.2273 81.7519 32.5061 81.4092 33.0835 80.4091C33.6609 79.4091 33.3182 78.1303 32.3182 77.5529C31.3181 76.9755 30.0393 77.3182 29.4619 78.3182Z" fill="#3336B2"/>
<path d="M32.3182 18.4472C31.3181 19.0246 30.0393 18.6819 29.4619 17.6819C28.8846 16.6818 29.2272 15.403 30.2273 14.8256C31.2273 14.2483 32.5061 14.5909 33.0835 15.591C33.6609 16.591 33.3182 17.8698 32.3182 18.4472Z" fill="#3336B2"/>
<path d="M17.6818 29.462C18.6819 30.0394 19.0245 31.3182 18.4471 32.3182C17.8697 33.3183 16.591 33.661 15.5909 33.0836C14.5908 32.5062 14.2482 31.2274 14.8256 30.2273C15.403 29.2273 16.6817 28.8846 17.6818 29.462Z" fill="#3336B2"/>
<path d="M18.4471 63.6819C19.0245 64.6819 18.6819 65.9607 17.6818 66.5381C16.6817 67.1155 15.403 66.7729 14.8256 65.7728C14.2482 64.7727 14.5908 63.4939 15.5909 62.9165C16.591 62.3392 17.8697 62.6818 18.4471 63.6819Z" fill="#3336B2"/>
<path d="M50.0909 25C50.0909 23.8452 49.1548 22.9091 48 22.9091C46.8452 22.9091 45.9091 23.8452 45.9091 25V45.9091H32.3182C31.1634 45.9091 30.2273 46.8452 30.2273 48C30.2273 49.1548 31.1634 50.0909 32.3182 50.0909H48C49.1548 50.0909 50.0909 49.1548 50.0909 48V25Z" fill="#3336B2"/>
<path fill-rule="evenodd" clip-rule="evenodd" d="M2 48C2 22.5949 22.5949 2 48 2C73.4051 2 94 22.5949 94 48C94 73.4051 73.4051 94 48 94C22.5949 94 2 73.4051 2 48ZM12.4545 45.9091C13.6093 45.9091 14.5455 46.8452 14.5455 48C14.5455 49.1548 13.6093 50.0909 12.4545 50.0909H6.18182C7.23714 71.5224 24.4776 88.7629 45.9091 89.8182V83.5455C45.9091 82.3907 46.8452 81.4545 48 81.4545C49.1548 81.4545 50.0909 82.3907 50.0909 83.5455V89.8182C71.5224 88.7629 88.7629 71.5224 89.8182 50.0909H83.5455C82.3907 50.0909 81.4545 49.1548 81.4545 48C81.4545 46.8452 82.3907 45.9091 83.5455 45.9091H89.8182C88.7629 24.4776 71.5224 7.23714 50.0909 6.18182V12.4545C50.0909 13.6093 49.1548 14.5455 48 14.5455C46.8452 14.5455 45.9091 13.6093 45.9091 12.4545V6.18182C24.4776 7.23714 7.23714 24.4776 6.18182 45.9091H12.4545Z" fill="#3336B2"/>
</svg>
