<svg width="96" height="96" viewBox="0 0 96 96" fill="none" xmlns="http://www.w3.org/2000/svg">
<path d="M64.5297 31.6905C65.3753 30.8737 66.7459 30.8738 67.5915 31.6905C68.4371 32.5072 68.4371 33.8311 67.5915 34.6479L59.0076 42.9401C58.1197 43.7974 56.6792 43.7976 55.7915 42.9401L51.5381 38.8308C50.6927 38.0141 50.6928 36.6901 51.5381 35.8733C52.3836 35.0566 53.7543 35.0567 54.5999 35.8733L57.3985 38.5765L64.5297 31.6905Z" fill="#3336B2"/>
<path fill-rule="evenodd" clip-rule="evenodd" d="M56.8952 13.708C58.4631 12.5228 60.6666 12.5227 62.2344 13.708L80.856 27.7884C84.0975 30.2393 82.3029 35.2647 78.1864 35.2647H76.887V49.9048C76.8869 52.2148 74.9481 54.0876 72.5564 54.0876H46.5732C44.1818 54.0874 42.2427 52.2147 42.2426 49.9048V35.2637H40.938C36.8229 35.2612 35.0311 30.2364 38.2716 27.7864L56.8952 13.708ZM40.9401 31.0808L46.5732 31.0828V49.9048H72.5564V31.0818H78.1864L59.5648 17.0024L40.9401 31.0808Z" fill="#3336B2"/>
<path fill-rule="evenodd" clip-rule="evenodd" d="M34.1482 12.9349C47.034 -0.692904 68.5504 -1.7524 82.6787 10.7107C96.7921 23.1612 97.8811 44.989 84.9824 58.631C72.5657 71.7632 52.1371 73.2227 38.0252 62.1603L28.9317 70.9437C29.8019 72.5248 29.5473 74.5318 28.1684 75.8639L10.6612 92.7751C8.97007 94.4083 6.22757 94.4083 4.53645 92.7751L3.2688 91.5497C1.57769 89.9162 1.5768 87.2674 3.26774 85.6338L20.776 68.7236C22.155 67.3917 24.233 67.1451 25.8699 67.9853L34.8344 59.3275C22.2764 46.6828 21.7617 26.0351 34.1482 12.9349ZM79.7575 13.7989C67.4143 2.91075 48.6367 3.81605 37.3465 15.7565C26.0695 27.6833 27.0157 46.8658 39.3732 57.767C51.7164 68.6554 70.4939 67.751 81.7842 55.8104C93.0613 43.8836 92.1151 24.7001 79.7575 13.7989Z" fill="#3336B2"/>
</svg>
