<svg width="96" height="96" viewBox="0 0 96 96" fill="none" xmlns="http://www.w3.org/2000/svg">
<path d="M62.6364 11H58.4545V19H62.6364V11Z" fill="#3336B2"/>
<path d="M58.4545 32V24H62.6364V32H58.4545Z" fill="#3336B2"/>
<path d="M58.4545 37V45H62.6364V37H58.4545Z" fill="#3336B2"/>
<path d="M58.4545 58V50H62.6364V58H58.4545Z" fill="#3336B2"/>
<path d="M58.4545 76V84H62.6364V76H58.4545Z" fill="#3336B2"/>
<path d="M69.9545 19V11H74.1364V19H69.9545Z" fill="#3336B2"/>
<path d="M69.9545 24V32H74.1364V24H69.9545Z" fill="#3336B2"/>
<path d="M69.9545 45V37H74.1364V45H69.9545Z" fill="#3336B2"/>
<path d="M69.9545 50V58H74.1364V50H69.9545Z" fill="#3336B2"/>
<path d="M69.9545 84V76H74.1364V84H69.9545Z" fill="#3336B2"/>
<path d="M69.9545 63V71H74.1364V63H69.9545Z" fill="#3336B2"/>
<path d="M81.4545 11H85.6364V19H81.4545V11Z" fill="#3336B2"/>
<path d="M81.4545 24V32H85.6364V24H81.4545Z" fill="#3336B2"/>
<path d="M81.4545 45V37H85.6364V45H81.4545Z" fill="#3336B2"/>
<path d="M81.4545 50V58H85.6364V50H81.4545Z" fill="#3336B2"/>
<path d="M81.4545 84V76H85.6364V84H81.4545Z" fill="#3336B2"/>
<path d="M81.4545 63V71H85.6364V63H81.4545Z" fill="#3336B2"/>
<path fill-rule="evenodd" clip-rule="evenodd" d="M30.2273 74V76H36.5V80H30.2273V85H26.0455V80H23.9545V76H26.0455V74H23.9545V70H26.0455V58L36.5 58C39.0018 58 40.9729 59.0557 42.2669 60.6471C43.5173 62.1848 44.0795 64.1402 44.0795 66C44.0795 67.8598 43.5173 69.8152 42.2669 71.3529C40.9729 72.9443 39.0018 74 36.5 74H30.2273ZM30.2273 70V62L36.5 62C37.6573 62 38.4305 62.4443 38.966 63.1029C39.5452 63.8152 39.8977 64.8599 39.8977 66C39.8977 67.1402 39.5452 68.1848 38.966 68.8971C38.4305 69.5557 37.6573 70 36.5 70H30.2273Z" fill="#3336B2"/>
<path fill-rule="evenodd" clip-rule="evenodd" d="M50.0909 6C50.0909 3.79086 51.9632 2 54.2727 2H89.8182C92.1277 2 94 3.79086 94 6V90C94 92.2091 92.1277 94 89.8182 94H4.09091C2.93613 94 2 93.1046 2 92C2 90.8954 2.93613 90 4.09091 90H12.4545V70H9.74317C5.86075 70 4.07393 65.3798 7.02168 62.963L12.4545 58.5087V15C12.4545 12.7909 14.3268 11 16.6364 11H50.0909V6ZM89.8182 90H54.2727V70H56.9841C60.8665 70 62.6533 65.3798 59.7056 62.963L54.2727 58.5087V6H89.8182V90ZM50.0909 31V55.0801L36.0851 43.5971C34.5191 42.3132 32.2082 42.3132 30.6421 43.5971L16.6364 55.0801V15H50.0909V20H22.9091C21.7543 20 20.8182 20.8954 20.8182 22C20.8182 23.1046 21.7543 24 22.9091 24H50.0909V27H22.9091C21.7543 27 20.8182 27.8954 20.8182 29C20.8182 30.1046 21.7543 31 22.9091 31H50.0909ZM50.0909 90H16.6364V66H9.74317L33.3636 46.6342L56.9841 66H50.0909V90Z" fill="#3336B2"/>
</svg>
